<?xml version="1.0" encoding="UTF-8"?>
<svg version="1.1" xmlns="http://www.w3.org/2000/svg" width="200" height="200">
<path d="M0 0 C1.4579417 1.05566253 2.89666416 2.13850271 4.3125 3.25 C4.92996094 3.72953125 5.54742187 4.2090625 6.18359375 4.703125 C16.03308577 13.3899821 19.37526055 25.66421314 20.3125 38.25 C20.786875 37.21875 21.26125 36.1875 21.75 35.125 C24.61930876 30.28365773 28.02731028 27.26306688 33.3125 25.25 C36.12749839 24.88379862 38.68554819 24.65559187 41.5 24.625 C42.17708008 24.61412354 42.85416016 24.60324707 43.55175781 24.59204102 C49.3193235 24.75539409 52.81601783 26.8807657 56.921875 30.77734375 C60.89558367 35.69004522 62.56478424 38.87742111 62.1875 45.1875 C61.16704082 53.18505221 56.1753637 58.22235007 50 63.0625 C49.443125 63.454375 48.88625 63.84625 48.3125 64.25 C49.75630013 68.55001343 51.92082733 71.52623738 54.8125 75 C55.6065625 75.96421875 56.400625 76.9284375 57.21875 77.921875 C59.09494484 80.29372141 59.09494484 80.29372141 61.3125 81.25 C61.9725 77.95 62.6325 74.65 63.3125 71.25 C72.41964286 72.05357143 72.41964286 72.05357143 76.3125 74.25 C73.76418036 83.39503361 73.76418036 83.39503361 71.5625 87.5625 C70.03660665 90.84317071 70.16029513 91.85879439 71.3125 95.25 C73.58450094 97.7897512 73.58450094 97.7897512 76.375 100.0625 C77.75365234 101.24779297 77.75365234 101.24779297 79.16015625 102.45703125 C80.22556641 103.34455078 80.22556641 103.34455078 81.3125 104.25 C80.46506083 108.73071284 78.29215011 110.88834347 75.3125 114.25 C70.55632539 112.91232589 67.66948369 110.03778601 64.1796875 106.7109375 C62.31384729 104.9418903 62.31384729 104.9418903 59.3125 105.25 C57.54944775 106.4702039 57.54944775 106.4702039 55.75 108.0625 C48.30096919 113.81239057 39.57778316 115.41477845 30.3125 114.25 C21.5597158 112.10019335 15.56486564 107.31874479 10.875 99.6875 C8.04745547 93.38084633 7.91927648 85.36268867 10.125 78.8515625 C14.06470934 71.92971207 21.00039852 66.90177546 27.3125 62.25 C26.91417969 61.68152344 26.51585937 61.11304687 26.10546875 60.52734375 C22.92546591 55.89274107 20.32314466 51.5000166 18.3125 46.25 C18.05597656 46.930625 17.79945312 47.61125 17.53515625 48.3125 C15.06030555 54.57878865 12.22620726 60.26885844 8.8125 66.0625 C5.08530638 72.44278129 2.51217253 78.68367929 0.3828125 85.75 C-0.80633488 89.63859873 -2.2597062 93.44254988 -3.6875 97.25 C-14.5775 97.25 -25.4675 97.25 -36.6875 97.25 C-41.17350224 88.27799552 -41.17350224 88.27799552 -42.6171875 84.26171875 C-42.93453857 83.39587158 -43.25188965 82.53002441 -43.57885742 81.63793945 C-43.90345947 80.74679443 -44.22806152 79.85564941 -44.5625 78.9375 C-47.39922241 71.31674073 -50.57112654 64.27341686 -54.6875 57.25 C-55.64108895 55.4459128 -56.57900356 53.63344153 -57.5 51.8125 C-57.89832031 51.03003906 -58.29664063 50.24757812 -58.70703125 49.44140625 C-62.57786819 40.78985436 -61.74074939 30.03231242 -58.5625 21.3125 C-53.60014841 9.97394245 -45.41887695 0.72795752 -33.828125 -4.05859375 C-22.33644417 -7.77032278 -10.18080427 -6.43179189 0 0 Z M-38.0625 22.6875 C-41.5464451 28.18141343 -42.02794367 33.36664186 -42 39.6875 C-42.01611328 40.41259766 -42.03222656 41.13769531 -42.04882812 41.88476562 C-42.05461742 48.32824555 -40.60497073 52.96976454 -36.375 58 C-29.76307067 63.53556874 -22.94626578 64.65986608 -14.48046875 64.10546875 C-8.66903026 63.06239005 -4.49436851 59.64884567 -0.6875 55.25 C0.86682022 52.02719619 0.86682022 52.02719619 1.3125 49.25 C0.10167514 47.83237411 0.10167514 47.83237411 -3.4375 47.8125 C-5.63223132 47.75101472 -5.63223132 47.75101472 -7.6875 48.25 C-8.93271747 49.71871804 -10.17517068 51.19611736 -11.28515625 52.76953125 C-14.06961451 55.70911254 -17.77858926 56.13601804 -21.6875 56.25 C-25.50901018 55.37293209 -27.71565838 54.59993562 -30.04296875 51.3671875 C-31.14688947 49.32512255 -32.07332862 47.48991913 -32.6875 45.25 C-32.3575 44.26 -32.0275 43.27 -31.6875 42.25 C-21.1275 41.92 -10.5675 41.59 0.3125 41.25 C1.51531359 34.03311845 0.85927081 29.02624637 -3.2734375 22.8984375 C-7.3470462 18.00654932 -10.48048994 15.61399756 -16.95703125 14.87890625 C-26.42032861 14.70153463 -31.48102307 15.93282631 -38.0625 22.6875 Z M32.3125 40.25 C31.54286857 43.95822415 31.67305956 46.12898099 33.5625 49.44140625 C36.63974111 53.85945309 36.63974111 53.85945309 41.3125 56.25 C43.18781558 55.12070639 43.18781558 55.12070639 44.9375 53.4375 C45.54851562 52.89480469 46.15953125 52.35210937 46.7890625 51.79296875 C49.27394815 49.27622559 49.32724295 48.10011336 49.6875 44.4375 C49.63129192 41.00880687 49.31023575 40.24670655 47.25 37.25 C41.2147636 33.14090287 36.42829028 34.38811687 32.3125 40.25 Z M26.3125 77.25 C22.63243031 81.3900784 21.66675448 84.60081813 21.921875 90.00390625 C22.71359776 94.55631209 24.91574131 97.80507721 28.125 101.125 C33.10609096 103.68670392 38.04648766 103.59968704 43.3125 102.12890625 C46.88413897 100.55933834 49.57009851 97.97526148 52.3125 95.25 C51.79805007 91.03885982 50.6230186 89.08302396 47.6875 86.0625 C43.89467172 82.01044965 40.79406843 77.76021037 37.7578125 73.12109375 C37.04238281 72.19490234 37.04238281 72.19490234 36.3125 71.25 C32.36008725 71.25 29.19458339 74.77231962 26.3125 77.25 Z " fill="#F9A62D" transform="translate(105.6875,53.75)"/>
<path d="M0 0 C0.67708008 -0.01087646 1.35416016 -0.02175293 2.05175781 -0.03295898 C7.8193235 0.13039409 11.31601783 2.2557657 15.421875 6.15234375 C19.39558367 11.06504522 21.06478424 14.25242111 20.6875 20.5625 C19.66704082 28.56005221 14.6753637 33.59735007 8.5 38.4375 C7.943125 38.829375 7.38625 39.22125 6.8125 39.625 C8.25630013 43.92501343 10.42082733 46.90123738 13.3125 50.375 C14.1065625 51.33921875 14.900625 52.3034375 15.71875 53.296875 C17.59494484 55.66872141 17.59494484 55.66872141 19.8125 56.625 C20.4725 53.325 21.1325 50.025 21.8125 46.625 C30.91964286 47.42857143 30.91964286 47.42857143 34.8125 49.625 C32.26418036 58.77003361 32.26418036 58.77003361 30.0625 62.9375 C28.53660665 66.21817071 28.66029513 67.23379439 29.8125 70.625 C32.08450094 73.1647512 32.08450094 73.1647512 34.875 75.4375 C36.25365234 76.62279297 36.25365234 76.62279297 37.66015625 77.83203125 C38.72556641 78.71955078 38.72556641 78.71955078 39.8125 79.625 C38.96506083 84.10571284 36.79215011 86.26334347 33.8125 89.625 C29.05632539 88.28732589 26.16948369 85.41278601 22.6796875 82.0859375 C20.81384729 80.3168903 20.81384729 80.3168903 17.8125 80.625 C16.04944775 81.8452039 16.04944775 81.8452039 14.25 83.4375 C6.80096919 89.18739057 -1.92221684 90.78977845 -11.1875 89.625 C-19.9402842 87.47519335 -25.93513436 82.69374479 -30.625 75.0625 C-33.45254453 68.75584633 -33.58072352 60.73768867 -31.375 54.2265625 C-27.43529066 47.30471207 -20.49960148 42.27677546 -14.1875 37.625 C-14.81978516 36.70267578 -14.81978516 36.70267578 -15.46484375 35.76171875 C-16.01269531 34.95347656 -16.56054688 34.14523438 -17.125 33.3125 C-17.94291016 32.11173828 -17.94291016 32.11173828 -18.77734375 30.88671875 C-22.10602824 25.54791454 -21.72517963 19.71343113 -21.1875 13.625 C-19.72373504 8.22489412 -15.74286044 4.6182811 -11.08984375 1.73046875 C-7.39414313 0.32281966 -3.91064798 0.04250704 0 0 Z M-9.1875 15.625 C-9.95713143 19.33322415 -9.82694044 21.50398099 -7.9375 24.81640625 C-4.86025889 29.23445309 -4.86025889 29.23445309 -0.1875 31.625 C1.68781558 30.49570639 1.68781558 30.49570639 3.4375 28.8125 C4.04851562 28.26980469 4.65953125 27.72710937 5.2890625 27.16796875 C7.77394815 24.65122559 7.82724295 23.47511336 8.1875 19.8125 C8.13129192 16.38380687 7.81023575 15.62170655 5.75 12.625 C-0.2852364 8.51590287 -5.07170972 9.76311687 -9.1875 15.625 Z M-15.1875 52.625 C-18.86756969 56.7650784 -19.83324552 59.97581813 -19.578125 65.37890625 C-18.78640224 69.93131209 -16.58425869 73.18007721 -13.375 76.5 C-8.39390904 79.06170392 -3.45351234 78.97468704 1.8125 77.50390625 C5.38413897 75.93433834 8.07009851 73.35026148 10.8125 70.625 C10.29805007 66.41385982 9.1230186 64.45802396 6.1875 61.4375 C2.39467172 57.38544965 -0.70593157 53.13521037 -3.7421875 48.49609375 C-4.45761719 47.56990234 -4.45761719 47.56990234 -5.1875 46.625 C-9.13991275 46.625 -12.30541661 50.14731962 -15.1875 52.625 Z " fill="#040405" transform="translate(147.1875,78.375)"/>
<path d="M0 0 C2.4375 1.125 2.4375 1.125 4 3 C5.25047898 8.31036742 5.18353226 13.63860205 5.1875 19.0625 C5.19974609 19.94744141 5.21199219 20.83238281 5.22460938 21.74414062 C5.24340438 30.0953896 5.24340438 30.0953896 3 34 C0.07331445 35.78853006 -1.69484207 36.01220632 -5.125 35.875 C-8.57451465 34.82514771 -9.23056434 34.08575449 -11 31 C-11.38818359 28.02319336 -11.38818359 28.02319336 -11.3984375 24.58984375 C-11.40230469 23.35298828 -11.40617187 22.11613281 -11.41015625 20.84179688 C-11.39855469 19.55337891 -11.38695313 18.26496094 -11.375 16.9375 C-11.38660156 15.64521484 -11.39820312 14.35292969 -11.41015625 13.02148438 C-11.40628906 11.78591797 -11.40242188 10.55035156 -11.3984375 9.27734375 C-11.39336182 7.57952759 -11.39336182 7.57952759 -11.38818359 5.84741211 C-11 3 -11 3 -9.72119141 1.13110352 C-6.72810447 -0.83584284 -3.40903685 -0.49486019 0 0 Z " fill="#F8A632" transform="translate(86,5)"/>
<path d="M0 0 C3.67315861 3.31421803 6.66451434 6.98509904 9.625 10.9375 C10.38039063 11.93652344 11.13578125 12.93554688 11.9140625 13.96484375 C17.0712188 21.46879589 17.0712188 21.46879589 16.875 25.6875 C15.87641182 28.3266259 15.35352451 29.43098366 13 31 C9.625 32 9.625 32 6 32 C-0.60919586 26.19786766 -10.00647051 16.86604756 -11.5 7.875 C-11 4 -11 4 -8.9375 1.4375 C-5.50009786 -0.24463296 -3.76977856 -0.70683348 0 0 Z " fill="#F0A83C" transform="translate(44,20)"/>
<path d="M0 0 C2.375 1.5625 2.375 1.5625 4 4 C5.05237539 10.95982716 2.03876945 14.83068197 -1.8125 20.25 C-2.35970703 21.05179688 -2.90691406 21.85359375 -3.47070312 22.6796875 C-8.40896611 29.83867238 -8.40896611 29.83867238 -11 32 C-14.93094707 32.50030235 -17.1005787 32.5996142 -20.4375 30.375 C-22.48088649 27.26905254 -22.36758055 25.68466284 -22 22 C-20.4609375 18.8515625 -20.4609375 18.8515625 -18.375 15.625 C-18.01325684 15.06135742 -17.65151367 14.49771484 -17.27880859 13.91699219 C-7.7464821 -0.77464821 -7.7464821 -0.77464821 0 0 Z " fill="#F5A732" transform="translate(129,17)"/>
<path d="M0 0 C2.48562738 2.71865494 2.95874814 4.33997026 3.1875 8 C0.94657809 13.6612764 -4.35313505 15.29317572 -9.65625 17.64453125 C-10.97692447 18.20582606 -12.29987348 18.76179807 -13.625 19.3125 C-14.25809082 19.57933594 -14.89118164 19.84617187 -15.54345703 20.12109375 C-19.50080976 21.69122587 -22.75185851 22.45646219 -27 22 C-30.5497226 19.63351827 -30.65102738 18.21351282 -31.47265625 14.16796875 C-30.68654001 10.56222897 -27.93327867 8.92637181 -25 7 C-22.0910853 5.36624479 -19.11140466 3.97613285 -16.0625 2.625 C-15.28970703 2.25761719 -14.51691406 1.89023437 -13.72070312 1.51171875 C-8.7761168 -0.7035228 -5.41596349 -1.52864359 0 0 Z " fill="#F8A62D" transform="translate(158,52)"/>
<path d="M0 0 C2.50598241 0.8334936 4.96494881 1.74521665 7.42700195 2.70043945 C8.27198242 3.00916992 9.11696289 3.31790039 9.98754883 3.63598633 C17.25199827 6.37674366 17.25199827 6.37674366 19.61450195 9.38793945 C20.00441884 13.75500854 20.07774264 15.69307842 17.61450195 19.38793945 C12.32588725 21.07393391 8.2586949 19.76444064 3.17700195 18.13793945 C2.4519043 17.92008789 1.72680664 17.70223633 0.97973633 17.4777832 C-11.56132785 13.62419475 -11.56132785 13.62419475 -14.38549805 9.38793945 C-14.20685518 6.0532726 -13.94154781 3.40191256 -12.32299805 0.45043945 C-8.5300377 -1.62957106 -4.06443851 -1.04283567 0 0 Z " fill="#F6A630" transform="translate(21.385498046875,57.612060546875)"/>
<path d="M0 0 C3.28268978 1.89666521 4.68179286 3.36358572 6.375 6.75 C7.42047755 12.18648325 7.14355171 16.26622806 4.0625 20.9375 C1.18094888 23.81905112 0.37232187 23.96948181 -3.8125 24.3125 C-7.13227327 24.28232024 -7.99044521 24.0060988 -10.9375 22.125 C-14.8251088 18.11958487 -14.38520285 14.31479343 -14.359375 8.9296875 C-14 6 -14 6 -11.625 2.8125 C-7.47384445 -0.05377407 -5.0977353 -0.43201147 0 0 Z " fill="#E71E25" transform="translate(182,69)"/>
<path d="M0 0 C1.02075623 -0.00287018 1.02075623 -0.00287018 2.06213379 -0.00579834 C3.50122446 -0.00715963 4.94032744 -0.00346705 6.37939453 0.00488281 C8.58524087 0.01558372 10.79027281 0.00498628 12.99609375 -0.0078125 C14.39323097 -0.00649089 15.79036768 -0.00392848 17.1875 0 C18.46302734 0.00225586 19.73855469 0.00451172 21.05273438 0.00683594 C24.09375 0.265625 24.09375 0.265625 26.09375 2.265625 C25.52556818 7.83380682 25.52556818 7.83380682 24.09375 9.265625 C21.82600109 9.36585909 19.55511837 9.39643841 17.28515625 9.3984375 C16.2622776 9.39987259 16.2622776 9.39987259 15.21873474 9.40133667 C13.77367053 9.40201839 12.32860328 9.40016469 10.88354492 9.39599609 C8.66903807 9.39065584 6.45473481 9.39593705 4.24023438 9.40234375 C2.83854122 9.40168281 1.43684819 9.40040131 0.03515625 9.3984375 C-1.24673584 9.39730957 -2.52862793 9.39618164 -3.84936523 9.39501953 C-6.90625 9.265625 -6.90625 9.265625 -8.90625 8.265625 C-9.03125 5.390625 -9.03125 5.390625 -8.90625 2.265625 C-6.03758116 -0.60304384 -4.00969387 0.00709142 0 0 Z " fill="#DD9E48" transform="translate(76.90625,151.734375)"/>
<path d="M0 0 C1.39120471 0.00015906 2.78241534 0.00585033 4.17358398 0.01586914 C4.90463852 0.01728409 5.63569305 0.01869904 6.38890076 0.02015686 C8.73253406 0.02577131 11.07607313 0.03832617 13.41967773 0.05102539 C15.00496282 0.05603853 16.59024939 0.06060176 18.17553711 0.06469727 C22.06945383 0.07574542 25.96329979 0.09301967 29.85717773 0.11352539 C30.65670911 3.40048772 30.95376709 4.82375731 29.85717773 8.11352539 C24.19069948 9.30999462 18.62016819 9.29720378 12.85717773 9.30102539 C11.88522461 9.31327148 10.91327148 9.32551758 9.91186523 9.33813477 C4.82297327 9.34853441 0.61959449 9.14881498 -4.14282227 7.11352539 C-4.18536583 5.11397793 -4.18363009 3.11310903 -4.14282227 1.11352539 C-3.14282227 0.11352539 -3.14282227 0.11352539 0 0 Z " fill="#F6A634" transform="translate(72.142822265625,173.886474609375)"/>
<path d="M0 0 C3.3 0 6.6 0 10 0 C11.68023 1.68023 11.13006804 3.75775928 11.1328125 6.05859375 C11.13474609 7.59676758 11.13474609 7.59676758 11.13671875 9.16601562 C11.13285156 10.24560547 11.12898437 11.32519531 11.125 12.4375 C11.12886719 13.51322266 11.13273438 14.58894531 11.13671875 15.69726562 C11.13542969 16.72400391 11.13414062 17.75074219 11.1328125 18.80859375 C11.13168457 19.75532959 11.13055664 20.70206543 11.12939453 21.67749023 C11 24 11 24 10 26 C6.7 25.67 3.4 25.34 0 25 C0 16.75 0 8.5 0 0 Z " fill="#070404" transform="translate(172,97)"/>
<path d="M0 0 C1.39120471 0.00015906 2.78241534 0.00585033 4.17358398 0.01586914 C4.90463852 0.01728409 5.63569305 0.01869904 6.38890076 0.02015686 C8.73253406 0.02577131 11.07607313 0.03832617 13.41967773 0.05102539 C15.00496282 0.05603853 16.59024939 0.06060176 18.17553711 0.06469727 C22.06945383 0.07574542 25.96329979 0.09301967 29.85717773 0.11352539 C30.65670911 3.40048772 30.95376709 4.82375731 29.85717773 8.11352539 C25.1757852 8.13817827 20.49443014 8.15636278 15.81298828 8.16845703 C14.21923159 8.17349696 12.62547954 8.18032889 11.03173828 8.18896484 C8.74567521 8.20104538 6.45967306 8.20675694 4.17358398 8.21118164 C3.45691055 8.21634293 2.74023712 8.22150421 2.00184631 8.2268219 C0.28654101 8.22701802 -1.42863493 8.17544546 -3.14282227 8.11352539 C-4.14282227 7.11352539 -4.14282227 7.11352539 -4.26782227 4.11352539 C-4.10260015 0.1481946 -4.10260015 0.1481946 0 0 Z " fill="#DE9F43" transform="translate(72.142822265625,162.886474609375)"/>
<path d="M0 0 C2.63918646 2.94967899 3.31397715 5.54107379 4.125 9.375 C2.125 11.375 2.125 11.375 0.00195312 11.61791992 C-1.28291992 11.61175659 -1.28291992 11.61175659 -2.59375 11.60546875 C-3.52574219 11.60353516 -4.45773438 11.60160156 -5.41796875 11.59960938 C-6.39378906 11.58736328 -7.36960937 11.57511719 -8.375 11.5625 C-9.35082031 11.56185547 -10.32664062 11.56121094 -11.33203125 11.56054688 C-18.59430804 11.51534598 -18.59430804 11.51534598 -20.875 10.375 C-20.42286421 5.51454021 -19.34358739 2.84358739 -15.875 -0.625 C-10.65895181 -3.81258501 -5.12078463 -2.89435653 0 0 Z " fill="#EEA538" transform="translate(93.875,77.625)"/>
<path d="M0 0 C1.11890625 -0.01224609 2.2378125 -0.02449219 3.390625 -0.03710938 C4.99164063 -0.04000977 4.99164063 -0.04000977 6.625 -0.04296875 C7.60726562 -0.04707764 8.58953125 -0.05118652 9.6015625 -0.05541992 C12 0.1875 12 0.1875 14 2.1875 C13.67028521 5.48464793 13.3773161 6.8101839 11 9.1875 C7.2075729 9.66847498 3.38196721 9.55788433 -0.4375 9.5625 C-1.50033203 9.58699219 -2.56316406 9.61148438 -3.65820312 9.63671875 C-4.67720703 9.64058594 -5.69621094 9.64445313 -6.74609375 9.6484375 C-7.68122803 9.65665527 -8.6163623 9.66487305 -9.57983398 9.67333984 C-12 9.1875 -12 9.1875 -13.84008789 7.29541016 C-15 5.1875 -15 5.1875 -14.8125 3 C-12.64332971 -1.83891833 -4.45603824 0.00256684 0 0 Z " fill="#EBA63C" transform="translate(86,183.8125)"/>
<path d="M0 0 C2.48562738 2.71865494 2.95874814 4.33997026 3.1875 8 C0.94657809 13.6612764 -4.35313505 15.29317572 -9.65625 17.64453125 C-10.97692447 18.20582606 -12.29987348 18.76179807 -13.625 19.3125 C-14.25809082 19.57933594 -14.89118164 19.84617187 -15.54345703 20.12109375 C-19.50080976 21.69122587 -22.75185851 22.45646219 -27 22 C-30.5497226 19.63351827 -30.65102738 18.21351282 -31.47265625 14.16796875 C-30.68654001 10.56222897 -27.93327867 8.92637181 -25 7 C-22.0910853 5.36624479 -19.11140466 3.97613285 -16.0625 2.625 C-15.28970703 2.25761719 -14.51691406 1.89023437 -13.72070312 1.51171875 C-8.7761168 -0.7035228 -5.41596349 -1.52864359 0 0 Z M-5 1 C-5 1.66 -5 2.32 -5 3 C-5.61875 3.28875 -6.2375 3.5775 -6.875 3.875 C-9.13325765 4.93720042 -9.13325765 4.93720042 -11 7 C-11.86625 6.979375 -12.7325 6.95875 -13.625 6.9375 C-19.05600977 7.03807425 -23.40498337 8.60436045 -27.5 12.1875 C-28.2425 13.0846875 -28.2425 13.0846875 -29 14 C-28.34 14 -27.68 14 -27 14 C-27 15.65 -27 17.3 -27 19 C-25.35 19.33 -23.7 19.66 -22 20 C-21.67 19.34 -21.34 18.68 -21 18 C-19.80375 18.0825 -18.6075 18.165 -17.375 18.25 C-12.87633748 18.2658683 -10.59485454 16.71611232 -7 14 C-5.35380887 13.28426473 -3.69271945 12.5974304 -2 12 C-2 11.34 -2 10.68 -2 10 C-1.34 10 -0.68 10 0 10 C0.23428313 5.2102679 0.23428313 5.2102679 -2 1 C-2.99 1 -3.98 1 -5 1 Z " fill="#F2A63C" transform="translate(158,52)"/>
<path d="M0 0 C0.90683762 2.72051286 1.12842547 4.32733006 1.1328125 7.125 C1.13474609 8.30835938 1.13474609 8.30835938 1.13671875 9.515625 C1.13285156 10.33546875 1.12898438 11.1553125 1.125 12 C1.12886719 12.81984375 1.13273437 13.6396875 1.13671875 14.484375 C1.13542969 15.27328125 1.13414063 16.0621875 1.1328125 16.875 C1.13168457 17.59429688 1.13055664 18.31359375 1.12939453 19.0546875 C1 21 1 21 0 24 C-2.31 24 -4.62 24 -7 24 C-7 23.01 -7 22.02 -7 21 C-7.66 21 -8.32 21 -9 21 C-8.9131197 18.0610493 -8.80626233 15.12518711 -8.6875 12.1875 C-8.66494141 11.35412109 -8.64238281 10.52074219 -8.61914062 9.66210938 C-8.5659668 8.45844727 -8.5659668 8.45844727 -8.51171875 7.23046875 C-8.47244263 6.12288208 -8.47244263 6.12288208 -8.43237305 4.99291992 C-7.3938331 0.20601897 -4.4426603 -0.3602157 0 0 Z " fill="#FAA62E" transform="translate(87,14)"/>
<path d="M0 0 C3.32585531 3.52631782 3.72063291 7.1738114 4.1875 11.8125 C4.3102832 12.84213867 4.3102832 12.84213867 4.43554688 13.89257812 C4.93011749 18.28552885 5.07509717 22.58082029 5 27 C4.34 26.67 3.68 26.34 3 26 C2.61521484 27.0209375 2.61521484 27.0209375 2.22265625 28.0625 C-0.25213334 34.32863392 -3.08561912 40.01933971 -6.5 45.8125 C-10.30468594 52.30929897 -12.87103561 58.6874738 -15.02734375 65.890625 C-15.82922362 68.45406426 -16.70739471 70.65823975 -18 73 C-18.25223399 66.94638418 -17.83052473 61.79666164 -16 56 C-15.34 55.34 -14.68 54.68 -14 54 C-11.97401066 50.35321919 -10.60789938 47.13371577 -10 43 C-9.01 43 -8.02 43 -7 43 C-7 40.69 -7 38.38 -7 36 C-4.525 35.505 -4.525 35.505 -2 35 C-2 33.68 -2 32.36 -2 31 C-1.34 31 -0.68 31 0 31 C0 29.02 0 27.04 0 25 C0.66 25 1.32 25 2 25 C2.23636721 19.48552589 2.23636721 19.48552589 1 14.1875 C-0.47466141 9.48701676 -0.15655978 4.88814429 0 0 Z " fill="#E6A84D" transform="translate(121,74)"/>
<path d="M0 0 C2.6875 2.25 2.6875 2.25 5 5 C5.8971875 6.051875 5.8971875 6.051875 6.8125 7.125 C8 9 8 9 8 12 C1.125 10.125 1.125 10.125 0 9 C-0.04063832 7.33382885 -0.042721 5.66611905 0 4 C-0.99 4.495 -0.99 4.495 -2 5 C-2.65213292 7.02463255 -2.65213292 7.02463255 -3 9 C-4.32 9 -5.64 9 -7 9 C-6.67 11.31 -6.34 13.62 -6 16 C-5.401875 16.04125 -4.80375 16.0825 -4.1875 16.125 C-2 17 -2 17 -0.25 19.9375 C1 23 1 23 1 25 C1.66 25 2.32 25 3 25 C2.67 25.99 2.34 26.98 2 28 C-10.41162458 13.33412736 -10.41162458 13.33412736 -11.5625 6.8125 C-11 4 -11 4 -8.875 1.625 C-5.46418575 -0.30285153 -3.85187398 -0.72222637 0 0 Z " fill="#F0A638" transform="translate(44,20)"/>
<path d="M0 0 C0.66 0 1.32 0 2 0 C2.020625 0.763125 2.04125 1.52625 2.0625 2.3125 C2.79660949 5.41389118 2.79660949 5.41389118 6.5625 6.8125 C7.696875 7.204375 8.83125 7.59625 10 8 C10.33 7.34 10.66 6.68 11 6 C11.33 8.97 11.66 11.94 12 15 C11.01 15.495 11.01 15.495 10 16 C10 15.34 10 14.68 10 14 C9.01 14 8.02 14 7 14 C6.67 15.65 6.34 17.3 6 19 C5.34 19 4.68 19 4 19 C3.67 17.35 3.34 15.7 3 14 C2.21625 13.855625 1.4325 13.71125 0.625 13.5625 C-2 13 -2 13 -4 12 C-4.73075648 9.6859378 -5.40138258 7.35171131 -6 5 C-5.34 4.34 -4.68 3.68 -4 3 C-3.01 3.66 -2.02 4.32 -1 5 C-0.67 3.35 -0.34 1.7 0 0 Z " fill="#F8A72B" transform="translate(42,24)"/>
<path d="M0 0 C5.32176539 4.21799183 9.59717041 7.78294298 11.109375 14.671875 C10.449375 14.671875 9.789375 14.671875 9.109375 14.671875 C9.109375 14.011875 9.109375 13.351875 9.109375 12.671875 C8.449375 12.671875 7.789375 12.671875 7.109375 12.671875 C7.109375 11.351875 7.109375 10.031875 7.109375 8.671875 C6.51125 8.589375 5.913125 8.506875 5.296875 8.421875 C2.48005227 7.45610721 1.63138368 6.18318933 0.109375 3.671875 C0.109375 3.011875 0.109375 2.351875 0.109375 1.671875 C-1.30664214 1.19079225 -2.72346937 0.71209359 -4.140625 0.234375 C-4.92953125 -0.03246094 -5.7184375 -0.29929687 -6.53125 -0.57421875 C-10.21810638 -1.75230365 -13.57108759 -2.46216291 -17.4453125 -2.64453125 C-18.30769531 -2.68642578 -19.17007813 -2.72832031 -20.05859375 -2.77148438 C-20.95191406 -2.81080078 -21.84523438 -2.85011719 -22.765625 -2.890625 C-23.65121094 -2.93380859 -24.53679687 -2.97699219 -25.44921875 -3.02148438 C-29.93385679 -3.23201507 -34.39966724 -3.38000075 -38.890625 -3.328125 C-29.23086959 -12.98788041 -9.49182885 -6.79911144 0 0 Z " fill="#DAA350" transform="translate(107.890625,55.328125)"/>
<path d="M0 0 C0.66 0 1.32 0 2 0 C2.84454356 3.37817425 3.10844919 5.67465243 2 9 C1.34 9 0.68 9 0 9 C-0.33 9.99 -0.66 10.98 -1 12 C-1.66 11.67 -2.32 11.34 -3 11 C-3 12.32 -3 13.64 -3 15 C-5.31 15 -7.62 15 -10 15 C-10 14.01 -10 13.02 -10 12 C-10.66 12 -11.32 12 -12 12 C-12 10.35 -12 8.7 -12 7 C-10.68 6.34 -9.36 5.68 -8 5 C-8 3.68 -8 2.36 -8 1 C-7.05125 1.20625 -6.1025 1.4125 -5.125 1.625 C-4.09375 1.74875 -3.0625 1.8725 -2 2 C-1.34 1.34 -0.68 0.68 0 0 Z " fill="#F8A62D" transform="translate(121,32)"/>
<path d="M0 0 C2.50598241 0.8334936 4.96494881 1.74521665 7.42700195 2.70043945 C8.27198242 3.00916992 9.11696289 3.31790039 9.98754883 3.63598633 C17.26013896 6.37981501 17.26013896 6.37981501 19.61450195 9.38793945 C19.92700195 12.95043945 19.92700195 12.95043945 19.61450195 16.38793945 C18.95450195 17.04793945 18.29450195 17.70793945 17.61450195 18.38793945 C17.94450195 15.74793945 18.27450195 13.10793945 18.61450195 10.38793945 C17.29450195 10.05793945 15.97450195 9.72793945 14.61450195 9.38793945 C14.61450195 8.72793945 14.61450195 8.06793945 14.61450195 7.38793945 C13.29450195 7.38793945 11.97450195 7.38793945 10.61450195 7.38793945 C10.61450195 6.72793945 10.61450195 6.06793945 10.61450195 5.38793945 C4.29477272 4.19137307 -1.99343948 3.11156872 -8.38549805 2.38793945 C-9.87049805 4.86293945 -9.87049805 4.86293945 -11.38549805 7.38793945 C-10.72549805 7.71793945 -10.06549805 8.04793945 -9.38549805 8.38793945 C-9.38549805 9.37793945 -9.38549805 10.36793945 -9.38549805 11.38793945 C-7.73549805 11.71793945 -6.08549805 12.04793945 -4.38549805 12.38793945 C-4.38549805 13.04793945 -4.38549805 13.70793945 -4.38549805 14.38793945 C-2.36726888 14.55069987 -0.34903971 14.71346029 1.66918945 14.8762207 C3.61450195 15.38793945 3.61450195 15.38793945 5.61450195 18.38793945 C-11.25260044 14.08728586 -11.25260044 14.08728586 -14.38549805 9.38793945 C-14.20685518 6.0532726 -13.94154781 3.40191256 -12.32299805 0.45043945 C-8.5300377 -1.62957106 -4.06443851 -1.04283567 0 0 Z " fill="#DDB062" transform="translate(21.385498046875,57.612060546875)"/>
<path d="M0 0 C4.34415669 0.48268408 6.21227649 1.65473178 9 5 C11.85185396 9.03591485 12.59451978 12.43181667 13.1875 17.3125 C13.34605469 18.56675781 13.50460938 19.82101563 13.66796875 21.11328125 C13.77753906 22.06589844 13.88710937 23.01851562 14 24 C13.34 24 12.68 24 12 24 C12 24.99 12 25.98 12 27 C1.77 27 -8.46 27 -19 27 C-19 29.97 -19 32.94 -19 36 C-21.47524576 33.09427672 -22.69670231 30.84177074 -23 27 C-21 25 -21 25 -17.83544922 24.77294922 C-16.49182037 24.77326611 -15.1481659 24.78457819 -13.8046875 24.8046875 C-13.09724396 24.8075174 -12.38980042 24.81034729 -11.66091919 24.81326294 C-9.3987749 24.82446863 -7.13702485 24.84957321 -4.875 24.875 C-3.34245363 24.88502933 -1.80990106 24.89415526 -0.27734375 24.90234375 C3.48192301 24.92440914 7.24089464 24.95894104 11 25 C10.86120811 23.42147857 10.71689349 21.8434422 10.5703125 20.265625 C10.49055176 19.38680664 10.41079102 18.50798828 10.32861328 17.60253906 C9.5668522 11.56957239 7.99214317 7.54256015 3.3125 3.5625 C2.68988281 3.08941406 2.06726563 2.61632812 1.42578125 2.12890625 C0.72001953 1.57009766 0.72001953 1.57009766 0 1 C0 0.67 0 0.34 0 0 Z " fill="#DCA558" transform="translate(95,70)"/>
<path d="M0 0 C3.28268978 1.89666521 4.68179286 3.36358572 6.375 6.75 C7.42047755 12.18648325 7.14355171 16.26622806 4.0625 20.9375 C1.18094888 23.81905112 0.37232187 23.96948181 -3.8125 24.3125 C-7.13227327 24.28232024 -7.99044521 24.0060988 -10.9375 22.125 C-14.16293277 18.80182684 -14.11516447 16.90414474 -14.0625 12.375 C-14.05347656 11.37210938 -14.04445312 10.36921875 -14.03515625 9.3359375 C-14.02355469 8.56507812 -14.01195312 7.79421875 -14 7 C-13.67 7 -13.34 7 -13 7 C-12.98582031 7.59167969 -12.97164062 8.18335937 -12.95703125 8.79296875 C-12.70470251 12.97344217 -12.32935381 15.49567698 -10 19.0625 C-5.76086726 21.80027323 -2.98319167 21.37187998 2 21 C2.33 15.72 2.66 10.44 3 5 C2.01 4.67 1.02 4.34 0 4 C0 3.34 0 2.68 0 2 C-1.43793392 2.31049726 -2.8753318 2.6234776 -4.3125 2.9375 C-5.11300781 3.11152344 -5.91351563 3.28554687 -6.73828125 3.46484375 C-9.145401 3.99886159 -9.145401 3.99886159 -12 5 C-11 2 -11 2 -9.375 0.8125 C-6.04576496 -0.32644883 -3.49841727 -0.36825445 0 0 Z " fill="#C02C37" transform="translate(182,69)"/>
<path d="M0 0 C2.4375 1.125 2.4375 1.125 4 3 C5.25047898 8.31036742 5.18353226 13.63860205 5.1875 19.0625 C5.19974609 19.94744141 5.21199219 20.83238281 5.22460938 21.74414062 C5.24340438 30.0953896 5.24340438 30.0953896 3 34 C0.07331445 35.78853006 -1.69484207 36.01220632 -5.125 35.875 C-8.57451465 34.82514771 -9.23056434 34.08575449 -11 31 C-11.38818359 28.02319336 -11.38818359 28.02319336 -11.3984375 24.58984375 C-11.40230469 23.35298828 -11.40617187 22.11613281 -11.41015625 20.84179688 C-11.39855469 19.55337891 -11.38695313 18.26496094 -11.375 16.9375 C-11.38660156 15.64521484 -11.39820312 14.35292969 -11.41015625 13.02148438 C-11.40628906 11.78591797 -11.40242188 10.55035156 -11.3984375 9.27734375 C-11.39336182 7.57952759 -11.39336182 7.57952759 -11.38818359 5.84741211 C-11 3 -11 3 -9.72119141 1.13110352 C-6.72810447 -0.83584284 -3.40903685 -0.49486019 0 0 Z M-10 4 C-10.08729047 8.06236402 -10.14048992 12.12448589 -10.1875 16.1875 C-10.21263672 17.33798828 -10.23777344 18.48847656 -10.26367188 19.67382812 C-10.27333984 20.78564453 -10.28300781 21.89746094 -10.29296875 23.04296875 C-10.3086792 24.06414795 -10.32438965 25.08532715 -10.34057617 26.13745117 C-9.94545648 29.45843928 -8.9808062 31.32829197 -7 34 C-4.08576068 34.87715718 -2.10206938 34.39391357 1 34 C4.321503 29.0177455 3.32754287 23.28917729 3.3125 17.4375 C3.32861328 16.18001953 3.34472656 14.92253906 3.36132812 13.62695312 C3.36197266 12.42876953 3.36261719 11.23058594 3.36328125 9.99609375 C3.36626221 8.89450928 3.36924316 7.7929248 3.37231445 6.65795898 C3.24945068 5.78083252 3.12658691 4.90370605 3 4 C-1.66523863 0.88984091 -5.22808126 1.40275697 -10 4 Z " fill="#D8A95D" transform="translate(86,5)"/>
<path d="M0 0 C0.33 0 0.66 0 1 0 C1.33 1.98 1.66 3.96 2 6 C0.68 6.33 -0.64 6.66 -2 7 C-2 8.65 -2 10.3 -2 12 C-1.34 12 -0.68 12 0 12 C-0.33 12.99 -0.66 13.98 -1 15 C-3.0625 15.6875 -3.0625 15.6875 -5 16 C-7.00155022 24.48657294 -6.9881034 33.78271566 -4 42 C-4 42.66 -4 43.32 -4 44 C-3.34 44 -2.68 44 -2 44 C-0.4375 46.8125 -0.4375 46.8125 1 50 C0.67 50.99 0.34 51.98 0 53 C-1.13495264 51.15190868 -2.25750108 49.29619718 -3.375 47.4375 C-4.00148438 46.40496094 -4.62796875 45.37242188 -5.2734375 44.30859375 C-9.95499977 35.33736469 -10.6352249 25.09137564 -8.01953125 15.34765625 C-5.96403282 9.82627123 -3.69390009 4.61737512 0 0 Z " fill="#DBA859" transform="translate(54,63)"/>
<path d="M0 0 C0.66 0 1.32 0 2 0 C4.5732519 2.5732519 4.94523529 4.75914102 5.9375 8.25 C7.23517358 12.81024561 8.86247487 16.7759782 11 21 C11.58634996 22.75654411 12.13202544 24.52749872 12.625 26.3125 C13.31828001 29.43247208 13.31828001 29.43247208 15 32 C17.37338639 32.15971977 19.72118272 32.2592433 22.09765625 32.31640625 C23.16094398 32.3475779 23.16094398 32.3475779 24.24571228 32.37937927 C26.51787305 32.44494598 28.79015264 32.5037923 31.0625 32.5625 C32.59962183 32.60567849 34.1367315 32.64929255 35.67382812 32.69335938 C39.4490959 32.80063449 43.2244836 32.90188137 47 33 C47.495 32.01 47.495 32.01 48 31 C47.67 32.32 47.34 33.64 47 35 C36.11 35 25.22 35 14 35 C9.4979525 25.995905 9.4979525 25.995905 7.9296875 21.8359375 C7.59066406 20.94132812 7.25164063 20.04671875 6.90234375 19.125 C6.56332031 18.2175 6.22429688 17.31 5.875 16.375 C5.52824219 15.45976562 5.18148437 14.54453125 4.82421875 13.6015625 C3.12456418 9.09519866 1.4776375 4.58524627 0 0 Z " fill="#DCA64F" transform="translate(55,116)"/>
<path d="M0 0 C1.27008194 2.54016388 0.72764969 3.32258269 0 6 C-0.14640279 8.78446839 -0.23074488 11.52772889 -0.25 14.3125 C-0.270625 15.04662109 -0.29125 15.78074219 -0.3125 16.53710938 C-0.35904486 23.09411631 1.05483303 27.6965128 5.375 32.8125 C11.35172106 37.79310088 18.9314965 38.33366324 26.4921875 37.8359375 C28.33491109 37.60641677 30.16924555 37.31088283 32 37 C31 39 31 39 28 40.125 C18.9505808 42.39196245 12.99060569 40.67091773 5 36 C5 35.34 5 34.68 5 34 C4.401875 33.9175 3.80375 33.835 3.1875 33.75 C0.28882221 32.75616762 -0.39404929 31.59221392 -2 29 C-2.73046875 26.1953125 -2.73046875 26.1953125 -3.1875 23.125 C-3.42533203 21.61292969 -3.42533203 21.61292969 -3.66796875 20.0703125 C-4.49747262 12.39984139 -2.9021843 7.04816187 0 0 Z " fill="#DFA244" transform="translate(65,79)"/>
<path d="M0 0 C1.39120471 0.00015906 2.78241534 0.00585033 4.17358398 0.01586914 C4.90463852 0.01728409 5.63569305 0.01869904 6.38890076 0.02015686 C8.73253406 0.02577131 11.07607313 0.03832617 13.41967773 0.05102539 C15.00496282 0.05603853 16.59024939 0.06060176 18.17553711 0.06469727 C22.06945383 0.07574542 25.96329979 0.09301967 29.85717773 0.11352539 C30.65670911 3.40048772 30.95376709 4.82375731 29.85717773 8.11352539 C24.19069948 9.30999462 18.62016819 9.29720378 12.85717773 9.30102539 C11.88522461 9.31327148 10.91327148 9.32551758 9.91186523 9.33813477 C4.82297327 9.34853441 0.61959449 9.14881498 -4.14282227 7.11352539 C-4.18536583 5.11397793 -4.18363009 3.11310903 -4.14282227 1.11352539 C-3.14282227 0.11352539 -3.14282227 0.11352539 0 0 Z M-1.14282227 1.11352539 C-1.47282227 2.43352539 -1.80282227 3.75352539 -2.14282227 5.11352539 C1.34564596 7.25856223 4.10123651 7.34707201 8.15405273 7.30883789 C9.35932617 7.30239258 10.56459961 7.29594727 11.80639648 7.28930664 C13.0606543 7.27254883 14.31491211 7.25579102 15.60717773 7.23852539 C16.8769043 7.22950195 18.14663086 7.22047852 19.45483398 7.21118164 C22.58913866 7.18761544 25.72306314 7.15471371 28.85717773 7.11352539 C28.85717773 5.13352539 28.85717773 3.15352539 28.85717773 1.11352539 C18.95717773 1.11352539 9.05717773 1.11352539 -1.14282227 1.11352539 Z " fill="#D19E49" transform="translate(72.142822265625,173.886474609375)"/>
<path d="M0 0 C1.16660156 0.00322266 2.33320312 0.00644531 3.53515625 0.00976562 C4.75847656 0.01814453 5.98179688 0.02652344 7.2421875 0.03515625 C8.47324219 0.03966797 9.70429687 0.04417969 10.97265625 0.04882812 C14.02088142 0.06064295 17.06901064 0.07711597 20.1171875 0.09765625 C20.1171875 1.41765625 20.1171875 2.73765625 20.1171875 4.09765625 C10.5471875 4.09765625 0.9771875 4.09765625 -8.8828125 4.09765625 C-8.5528125 3.10765625 -8.2228125 2.11765625 -7.8828125 1.09765625 C-5.16879956 -0.25935022 -3.03434934 -0.01472985 0 0 Z " fill="#F7A633" transform="translate(77.8828125,154.90234375)"/>
<path d="M0 0 C1.61841797 0.08701172 1.61841797 0.08701172 3.26953125 0.17578125 C4.35621094 0.22089844 5.44289063 0.26601562 6.5625 0.3125 C7.39394531 0.37050781 8.22539063 0.42851563 9.08203125 0.48828125 C9.08203125 1.14828125 9.08203125 1.80828125 9.08203125 2.48828125 C8.09203125 2.48828125 7.10203125 2.48828125 6.08203125 2.48828125 C6.41203125 4.13828125 6.74203125 5.78828125 7.08203125 7.48828125 C5.43203125 7.81828125 3.78203125 8.14828125 2.08203125 8.48828125 C2.08203125 7.82828125 2.08203125 7.16828125 2.08203125 6.48828125 C0.43203125 6.48828125 -1.21796875 6.48828125 -2.91796875 6.48828125 C-2.91796875 7.14828125 -2.91796875 7.80828125 -2.91796875 8.48828125 C0.05203125 8.98328125 0.05203125 8.98328125 3.08203125 9.48828125 C3.08203125 9.81828125 3.08203125 10.14828125 3.08203125 10.48828125 C0.11203125 10.15828125 -2.85796875 9.82828125 -5.91796875 9.48828125 C-5.91796875 4.51210977 -5.3918136 0.90224458 0 0 Z " fill="#F9A829" transform="translate(85.91796875,97.51171875)"/>
<path d="M0 0 C2.48562738 2.71865494 2.95874814 4.33997026 3.1875 8 C1.41726828 12.47216434 -1.84716165 13.87350021 -6 16 C-6.68449219 16.39703125 -7.36898437 16.7940625 -8.07421875 17.203125 C-10 18 -10 18 -13 17 C-9.66601435 14.65105557 -6.97785959 12.8839688 -3 12 C-2.67 11.34 -2.34 10.68 -2 10 C-1.34 10 -0.68 10 0 10 C0 8.02 0 6.04 0 4 C-0.66 3.67 -1.32 3.34 -2 3 C-2.33 2.34 -2.66 1.68 -3 1 C-8.30779511 1.77080113 -12.39784453 4.1939846 -17.0625 6.72265625 C-20.01395289 8.00606728 -21.83009539 8.27387043 -25 8 C-22.21156705 5.21156705 -18.8597091 3.90858417 -15.3125 2.3125 C-14.61705078 1.97927734 -13.92160156 1.64605469 -13.20507812 1.30273438 C-8.44238169 -0.83625441 -5.21721338 -1.41750703 0 0 Z " fill="#DEAC66" transform="translate(158,52)"/>
<path d="M0 0 C6.93 0 13.86 0 21 0 C20.67 1.65 20.34 3.3 20 5 C13.07 4.67 6.14 4.34 -1 4 C-0.67 2.68 -0.34 1.36 0 0 Z " fill="#F8A630" transform="translate(79,165)"/>
<path d="M0 0 C0.99 0.66 1.98 1.32 3 2 C2.67 2.66 2.34 3.32 2 4 C1.278125 3.814375 0.55625 3.62875 -0.1875 3.4375 C-3.12826973 2.98004693 -5.14103058 3.26483643 -8 4 C-8.33 6.64 -8.66 9.28 -9 12 C-8.01 12 -7.02 12 -6 12 C-6 13.32 -6 14.64 -6 16 C-5.401875 16.04125 -4.80375 16.0825 -4.1875 16.125 C-2 17 -2 17 -0.25 19.9375 C1 23 1 23 1 25 C1.66 25 2.32 25 3 25 C2.67 25.99 2.34 26.98 2 28 C-10.41162458 13.33412736 -10.41162458 13.33412736 -11.5625 6.8125 C-11 4 -11 4 -8.875 1.625 C-5.54805483 -0.25544727 -3.76265429 -0.49078099 0 0 Z " fill="#D7AD62" transform="translate(44,20)"/>
<path d="M0 0 C1.11890625 -0.01224609 2.2378125 -0.02449219 3.390625 -0.03710938 C4.99164063 -0.04000977 4.99164063 -0.04000977 6.625 -0.04296875 C7.60726562 -0.04707764 8.58953125 -0.05118652 9.6015625 -0.05541992 C12 0.1875 12 0.1875 14 2.1875 C13.625 4.8125 13.625 4.8125 13 7.1875 C12.71125 6.548125 12.4225 5.90875 12.125 5.25 C11.17176549 3.03543921 11.17176549 3.03543921 9 2.1875 C7.47851674 2.10377341 5.95344222 2.08019973 4.4296875 2.08984375 C3.08583984 2.09467773 3.08583984 2.09467773 1.71484375 2.09960938 C0.30912109 2.11217773 0.30912109 2.11217773 -1.125 2.125 C-2.54232422 2.13176758 -2.54232422 2.13176758 -3.98828125 2.13867188 C-6.32558387 2.15047643 -8.66276061 2.16694241 -11 2.1875 C-11 3.5075 -11 4.8275 -11 6.1875 C-8.65061112 7.36219444 -7.04926795 7.38784889 -4.4296875 7.50390625 C-3.08583984 7.56674805 -3.08583984 7.56674805 -1.71484375 7.63085938 C-0.77769531 7.67017578 0.15945312 7.70949219 1.125 7.75 C2.06988281 7.79318359 3.01476562 7.83636719 3.98828125 7.88085938 C6.32537092 7.98709072 8.6625683 8.08913176 11 8.1875 C11 8.5175 11 8.8475 11 9.1875 C7.22942453 9.30347653 3.45930607 9.37467396 -0.3125 9.4375 C-1.38435547 9.47101563 -2.45621094 9.50453125 -3.56054688 9.5390625 C-5.10258789 9.55839844 -5.10258789 9.55839844 -6.67578125 9.578125 C-7.62364502 9.59907227 -8.57150879 9.62001953 -9.5480957 9.64160156 C-12 9.1875 -12 9.1875 -13.84448242 7.29980469 C-15 5.1875 -15 5.1875 -14.8125 3 C-12.64332971 -1.83891833 -4.45603824 0.00256684 0 0 Z " fill="#D39C43" transform="translate(86,183.8125)"/>
<path d="M0 0 C6.27 0 12.54 0 19 0 C19.33 1.32 19.66 2.64 20 4 C17.04160645 4.02689449 14.08345573 4.04678741 11.125 4.0625 C9.86236328 4.07506836 9.86236328 4.07506836 8.57421875 4.08789062 C7.76855469 4.09111328 6.96289062 4.09433594 6.1328125 4.09765625 C5.01737061 4.10551147 5.01737061 4.10551147 3.87939453 4.11352539 C2 4 2 4 0 3 C0 2.01 0 1.02 0 0 Z " fill="#F8A734" transform="translate(78,186)"/>
<path d="M0 0 C1.15957207 3.47871621 0.77456651 4.34219645 -0.4375 7.6875 C-0.86869141 8.89986328 -0.86869141 8.89986328 -1.30859375 10.13671875 C-1.53675781 10.75160156 -1.76492187 11.36648437 -2 12 C-1.34 12 -0.68 12 0 12 C0 12.99 0 13.98 0 15 C2.31 15 4.62 15 7 15 C7 13.68 7 12.36 7 11 C7.66 11 8.32 11 9 11 C9.33 10.34 9.66 9.68 10 9 C10.66 9 11.32 9 12 9 C12 7.68 12 6.36 12 5 C12.99 5 13.98 5 15 5 C13.53607059 9.83096706 10.90905331 13.81220709 7 17 C2.89290523 17.77893177 1.04555977 17.69703985 -2.4375 15.375 C-4.50899736 12.22632401 -4.58372053 10.72121836 -4 7 C-2.83620714 4.50687478 -1.49006075 2.32821992 0 0 Z " fill="#DCA955" transform="translate(111,32)"/>
<path d="M0 0 C2.375 1.5625 2.375 1.5625 4 4 C4.5 7.5 4.5 7.5 4 11 C2 13.4375 2 13.4375 0 15 C0.99 11.7 1.98 8.4 3 5 C-0.44453835 3.4253539 -3.22072448 2.224764 -7 3 C-10.08055326 6.69666392 -11.6855708 10.39949779 -13 15 C-14.32 15 -15.64 15 -17 15 C-15.66117477 11.22451284 -13.98364112 8.38612311 -11.5 5.25 C-10.58734375 4.08210938 -10.58734375 4.08210938 -9.65625 2.890625 C-6.74887935 -0.42816602 -4.28664748 -0.42866475 0 0 Z " fill="#CFAC6D" transform="translate(129,17)"/>
<path d="M0 0 C0.66 0 1.32 0 2 0 C1.67 8.91 1.34 17.82 1 27 C1.66 27 2.32 27 3 27 C3 27.99 3 28.98 3 30 C5.31 30 7.62 30 10 30 C10 30.33 10 30.66 10 31 C4.04296875 31.48828125 4.04296875 31.48828125 2 31 C-0.75363982 27.29850239 -1.37018747 24.64552892 -1.328125 20.078125 C-1.32296875 18.97082031 -1.3178125 17.86351562 -1.3125 16.72265625 C-1.291875 15.57667969 -1.27125 14.43070313 -1.25 13.25 C-1.24484375 12.08855469 -1.2396875 10.92710938 -1.234375 9.73046875 C-1.15412854 1.15412854 -1.15412854 1.15412854 0 0 Z " fill="#E7AA47" transform="translate(77,8)"/>
<path d="M0 0 C-0.598125 0.226875 -1.19625 0.45375 -1.8125 0.6875 C-4.56351888 2.33811133 -5.52484637 4.1972081 -7 7 C-6.34 7.33 -5.68 7.66 -5 8 C-5 8.99 -5 9.98 -5 11 C-3.35 11.33 -1.7 11.66 0 12 C0 12.66 0 13.32 0 14 C2.01822917 14.16276042 4.03645833 14.32552083 6.0546875 14.48828125 C8 15 8 15 10 18 C-6.8671024 13.69934641 -6.8671024 13.69934641 -10 9 C-10.4375 6.5625 -10.4375 6.5625 -10 4 C-6.8072686 0.6248268 -4.63993968 -0.53027882 0 0 Z " fill="#DEAA56" transform="translate(17,58)"/>
<path d="M0 0 C0 0.99 0 1.98 0 3 C0.66 3.33 1.32 3.66 2 4 C-5.92 4 -13.84 4 -22 4 C-16.5412381 -1.4587619 -7.12857604 -0.21385728 0 0 Z " fill="#E8AA4B" transform="translate(91,48)"/>
<path d="M0 0 C3.32585531 3.52631782 3.72063291 7.1738114 4.1875 11.8125 C4.26935547 12.49892578 4.35121094 13.18535156 4.43554688 13.89257812 C4.93011749 18.28552885 5.07509717 22.58082029 5 27 C4.34 26.67 3.68 26.34 3 26 C2.01 26.33 1.02 26.66 0 27 C0 26.34 0 25.68 0 25 C0.66 25 1.32 25 2 25 C2.23636721 19.48552589 2.23636721 19.48552589 1 14.1875 C-0.47466141 9.48701676 -0.15655978 4.88814429 0 0 Z " fill="#E3A94D" transform="translate(121,74)"/>
<path d="M0 0 C0 0.66 0 1.32 0 2 C-4 6 -4 6 -7.5625 7.4375 C-9.2640625 8.2109375 -9.2640625 8.2109375 -11 9 C-11.33 9.99 -11.66 10.98 -12 12 C-11.01 12 -10.02 12 -9 12 C-9 12.66 -9 13.32 -9 14 C-10.65 13.67 -12.3 13.34 -14 13 C-13.54786421 8.13954021 -12.46858739 5.46858739 -9 2 C-5.616593 0.22371132 -3.91065931 0 0 0 Z " fill="#E7A648" transform="translate(87,75)"/>
<path d="M0 0 C0.33 0 0.66 0 1 0 C1.33 1.98 1.66 3.96 2 6 C0.68 6.33 -0.64 6.66 -2 7 C-2 8.65 -2 10.3 -2 12 C-1.34 12 -0.68 12 0 12 C-0.33 12.99 -0.66 13.98 -1 15 C-3.0625 15.6875 -3.0625 15.6875 -5 16 C-5.33 17.65 -5.66 19.3 -6 21 C-6.33 21 -6.66 21 -7 21 C-7.90705324 13.13887194 -4.88433064 7.72494917 -1 1 C-0.67 0.67 -0.34 0.34 0 0 Z " fill="#EEA63E" transform="translate(54,63)"/>
<path d="M0 0 C0.33 0.99 0.66 1.98 1 3 C1.66 3 2.32 3 3 3 C3.33 4.65 3.66 6.3 4 8 C5.32 8.33 6.64 8.66 8 9 C8.33 8.01 8.66 7.02 9 6 C11.64 6.33 14.28 6.66 17 7 C12.30551654 10.12965564 8.70018965 11.49566867 3 11 C0 9 0 9 -0.546875 7.08984375 C-0.7381288 5.06328901 -0.87101785 3.03146886 -1 1 C-0.67 0.67 -0.34 0.34 0 0 Z " fill="#ECB155" transform="translate(128,63)"/>
<path d="M0 0 C0.66 0.33 1.32 0.66 2 1 C1.34 1.66 0.68 2.32 0 3 C-0.31134571 5.55450203 -0.31134571 5.55450203 -0.265625 8.5234375 C-0.26820312 9.626875 -0.27078125 10.7303125 -0.2734375 11.8671875 C-0.26570313 13.02476563 -0.25796875 14.18234375 -0.25 15.375 C-0.25773437 16.52484375 -0.26546875 17.6746875 -0.2734375 18.859375 C-0.27085938 19.96539063 -0.26828125 21.07140625 -0.265625 22.2109375 C-0.26336914 23.22462402 -0.26111328 24.23831055 -0.25878906 25.28271484 C0.00409478 28.0429952 0.48095899 29.69559533 2 32 C4.67790463 32.83886169 7.1737941 32.81766414 10 33 C10.66 31.68 11.32 30.36 12 29 C12.33 29.99 12.66 30.98 13 32 C10.15386732 34.84613268 7.95999656 34.79864424 4 35 C1.05244268 33.65437601 -0.54277272 32.91445456 -2 30 C-2.24487459 25.33791703 -2.18520286 20.66778632 -2.1875 16 C-2.19974609 14.6903125 -2.21199219 13.380625 -2.22460938 12.03125 C-2.22654297 10.7834375 -2.22847656 9.535625 -2.23046875 8.25 C-2.23457764 7.10015625 -2.23868652 5.9503125 -2.24291992 4.765625 C-2 2 -2 2 0 0 Z " fill="#D6B675" transform="translate(77,6)"/>
<path d="M0 0 C0.89138672 0.52400391 0.89138672 0.52400391 1.80078125 1.05859375 C10.82608363 6.0133865 18.95044898 6.70652753 29 5 C28 7 28 7 25 8.125 C15.9505808 10.39196245 9.99060569 8.67091773 2 4 C2 3.34 2 2.68 2 2 C1.34 2 0.68 2 0 2 C0 1.34 0 0.68 0 0 Z " fill="#DCA451" transform="translate(68,111)"/>
<path d="M0 0 C0.33 0 0.66 0 1 0 C1.01417969 0.59167969 1.02835938 1.18335937 1.04296875 1.79296875 C1.2962655 5.98947972 1.69489606 8.52327509 4 12.125 C7.75660387 14.47287742 9.76163623 14.19220109 14.01171875 13.4921875 C16.0564171 13.06311956 16.0564171 13.06311956 18 12 C16.25 15.875 16.25 15.875 14 17 C6.91041162 17.5811138 6.91041162 17.5811138 3.0625 15.125 C-0.16293277 11.80182684 -0.11516447 9.90414474 -0.0625 5.375 C-0.05347656 4.37210937 -0.04445312 3.36921875 -0.03515625 2.3359375 C-0.02355469 1.56507812 -0.01195312 0.79421875 0 0 Z " fill="#B9434B" transform="translate(168,76)"/>
<path d="M0 0 C5.625 -0.25 5.625 -0.25 9 2 C9.34057617 4.70556641 9.34057617 4.70556641 9.29296875 8.1015625 C9.28330078 9.31328125 9.27363281 10.525 9.26367188 11.7734375 C9.23853516 13.04445313 9.21339844 14.31546875 9.1875 15.625 C9.17396484 16.90375 9.16042969 18.1825 9.14648438 19.5 C9.11103196 22.66708282 9.06161441 25.83333541 9 29 C8.34 29.33 7.68 29.66 7 30 C7.01571045 29.16190796 7.01571045 29.16190796 7.03173828 28.30688477 C7.07383379 25.7254707 7.09949343 23.14412924 7.125 20.5625 C7.14175781 19.68400391 7.15851563 18.80550781 7.17578125 17.90039062 C7.21967784 11.95240262 6.48881322 6.7618244 5 1 C3.35 1 1.7 1 0 1 C0 0.67 0 0.34 0 0 Z " fill="#EBA93C" transform="translate(80,7)"/>
<path d="M0 0 C1.64574566 -0.02688151 3.29161413 -0.04634123 4.9375 -0.0625 C5.85402344 -0.07410156 6.77054688 -0.08570312 7.71484375 -0.09765625 C10 0 10 0 11 1 C11.08669432 2.4887186 11.10703494 3.981445 11.09765625 5.47265625 C11.09443359 6.37177734 11.09121094 7.27089844 11.08789062 8.19726562 C11.07951172 9.14279297 11.07113281 10.08832031 11.0625 11.0625 C11.05798828 12.01189453 11.05347656 12.96128906 11.04882812 13.93945312 C11.0370011 16.29303065 11.02052025 18.64648477 11 21 C10.67 21 10.34 21 10 21 C9.67 14.73 9.34 8.46 9 2 C6.525 3.485 6.525 3.485 4 5 C2.64567325 3.68799596 1.31266518 2.35368596 0 1 C0 0.67 0 0.34 0 0 Z " fill="#0E0C0B" transform="translate(172,97)"/>
<path d="M0 0 C0.66 0.33 1.32 0.66 2 1 C2.59355614 3.64860427 2.74209269 6.29197322 3 9 C1.75146327 9.79397239 0.50109957 10.58507217 -0.75 11.375 C-1.44609375 11.81585938 -2.1421875 12.25671875 -2.859375 12.7109375 C-6.95365419 15.17647059 -6.95365419 15.17647059 -9 16 C-9.99 15.67 -10.98 15.34 -12 15 C-8.66601435 12.65105557 -5.97785959 10.8839688 -2 10 C-1.67 9.34 -1.34 8.68 -1 8 C-0.34 8 0.32 8 1 8 C1 6.02 1 4.04 1 2 C0.34 1.67 -0.32 1.34 -1 1 C-0.67 0.67 -0.34 0.34 0 0 Z " fill="#E7AD50" transform="translate(157,54)"/>
<path d="M0 0 C1.42892578 0.12568359 1.42892578 0.12568359 2.88671875 0.25390625 C4.14097656 0.35574219 5.39523438 0.45757812 6.6875 0.5625 C7.92886719 0.66691406 9.17023438 0.77132812 10.44921875 0.87890625 C13.55835533 0.98493841 16.00810972 0.77228525 19 0 C16.69372354 2.85978281 15.26653669 3.92456509 11.6875 4.9375 C7.14310954 5.01452357 4.96987099 4.14373033 1 2 C0.67 1.34 0.34 0.68 0 0 Z " fill="#DE9F44" transform="translate(76,106)"/>
<path d="M0 0 C2.9375 2 2.9375 2 5 4 C4.67 4.66 4.34 5.32 4 6 C2.68 5.34 1.36 4.68 0 4 C0 3.34 0 2.68 0 2 C-1.43793392 2.31049726 -2.8753318 2.6234776 -4.3125 2.9375 C-5.51326172 3.19853516 -5.51326172 3.19853516 -6.73828125 3.46484375 C-9.145401 3.99886159 -9.145401 3.99886159 -12 5 C-11 2 -11 2 -9.375 0.8125 C-6.04576496 -0.32644883 -3.49841727 -0.36825445 0 0 Z " fill="#B94650" transform="translate(182,69)"/>
<path d="M0 0 C0.268125 0.61875 0.53625 1.2375 0.8125 1.875 C1.95556848 4.2995233 1.95556848 4.2995233 5 6 C7.22131423 6.3650791 7.22131423 6.3650791 9.66796875 6.4140625 C11.00698242 6.47207031 11.00698242 6.47207031 12.37304688 6.53125 C13.30181641 6.5621875 14.23058594 6.593125 15.1875 6.625 C16.12787109 6.66367188 17.06824219 6.70234375 18.03710938 6.7421875 C20.3578771 6.83643187 22.67863748 6.92204025 25 7 C25 7.33 25 7.66 25 8 C21.22942453 8.11597653 17.45930607 8.18717396 13.6875 8.25 C12.61564453 8.28351563 11.54378906 8.31703125 10.43945312 8.3515625 C8.89741211 8.37089844 8.89741211 8.37089844 7.32421875 8.390625 C6.37635498 8.41157227 5.42849121 8.43251953 4.4519043 8.45410156 C2 8 2 8 0.14770508 6.11621094 C-1 4 -1 4 -0.6875 1.75 C-0.460625 1.1725 -0.23375 0.595 0 0 Z " fill="#CCA160" transform="translate(72,185)"/>
<path d="M0 0 C0 0.66 0 1.32 0 2 C-0.99 2 -1.98 2 -3 2 C-3 2.99 -3 3.98 -3 5 C-3.99 5 -4.98 5 -6 5 C-6.33 6.32 -6.66 7.64 -7 9 C-9.31 9.66 -11.62 10.32 -14 11 C-5.28651685 0 -5.28651685 0 0 0 Z " fill="#E3A855" transform="translate(69,52)"/>
<path d="M0 0 C0.66 0 1.32 0 2 0 C1.91253716 1.43861294 1.80434652 2.87597508 1.6875 4.3125 C1.62949219 5.11300781 1.57148437 5.91351563 1.51171875 6.73828125 C0.90880315 9.40307617 0.09396156 10.29897937 -2 12 C-4 13.25 -4 13.25 -6 14 C-6.99 13.67 -7.98 13.34 -9 13 C-8.51789063 12.64808594 -8.03578125 12.29617187 -7.5390625 11.93359375 C-2.87132067 8.28513432 -1.05242326 5.84679591 0 0 Z " fill="#E7A849" transform="translate(106,102)"/>
<path d="M0 0 C0.66 0.33 1.32 0.66 2 1 C1.67 1.33 1.34 1.66 1 2 C0.83592044 6.84034716 1.04651725 11.23258627 2 16 C-0.62799102 14.13497412 -1.86365751 12.69589209 -2.48828125 9.5078125 C-2.72593573 7.0035728 -2.9040664 4.51346021 -3 2 C-2.01 1.34 -1.02 0.68 0 0 Z " fill="#E2212A" transform="translate(171,73)"/>
<path d="M0 0 C2.475 0.99 2.475 0.99 5 2 C5.30017023 6.16486198 4.45324946 8.65015727 2.5 12.3125 C2.0359375 13.19550781 1.571875 14.07851563 1.09375 14.98828125 C0.55234375 15.98408203 0.55234375 15.98408203 0 17 C-1.57432497 13.85135005 -0.71895552 11.35512575 0 8 C0.99 7.34 1.98 6.68 3 6 C2.690625 5.38125 2.38125 4.7625 2.0625 4.125 C1.375 2.75 0.6875 1.375 0 0 Z " fill="#E6AA4A" transform="translate(127,20)"/>
<path d="M0 0 C-0.598125 0.226875 -1.19625 0.45375 -1.8125 0.6875 C-4.56351888 2.33811133 -5.52484637 4.1972081 -7 7 C-6.34 7.33 -5.68 7.66 -5 8 C-5 8.99 -5 9.98 -5 11 C-7.475 10.01 -7.475 10.01 -10 9 C-10.3125 6.75 -10.3125 6.75 -10 4 C-6.8072686 0.6248268 -4.63993968 -0.53027882 0 0 Z " fill="#E7AC4A" transform="translate(17,58)"/>
<path d="M0 0 C0.33 1.32 0.66 2.64 1 4 C-0.32 4.33 -1.64 4.66 -3 5 C-3.33 4.34 -3.66 3.68 -4 3 C-4.99 3 -5.98 3 -7 3 C-7.33 3.66 -7.66 4.32 -8 5 C-9.32 5 -10.64 5 -12 5 C-12 4.34 -12 3.68 -12 3 C-11.01 3 -10.02 3 -9 3 C-9 2.34 -9 1.68 -9 1 C-5.94152152 0.45627049 -3.11227195 0 0 0 Z " fill="#F3A83A" transform="translate(78,51)"/>
<path d="M0 0 C2.92761527 0.32529059 5.32615294 0.59569177 7.875 2.125 C9.6509752 5.08495867 9.30558381 7.63857808 9 11 C8.34 11.66 7.68 12.32 7 13 C7.33 10.36 7.66 7.72 8 5 C6.68 4.67 5.36 4.34 4 4 C4 3.34 4 2.68 4 2 C2.68 2 1.36 2 0 2 C0 1.34 0 0.68 0 0 Z " fill="#D5A352" transform="translate(32,63)"/>
<path d="M0 0 C1.32 0 2.64 0 4 0 C4 1.98 4 3.96 4 6 C3.01 6 2.02 6 1 6 C1 6.99 1 7.98 1 9 C0.34 9 -0.32 9 -1 9 C-1.09765625 2.84765625 -1.09765625 2.84765625 -1 1 C-0.67 0.67 -0.34 0.34 0 0 Z " fill="#EDA836" transform="translate(36,23)"/>
<path d="M0 0 C7.23809524 -0.36190476 7.23809524 -0.36190476 10.5 1.1875 C12 3 12 3 12.25 5.6875 C12.1675 6.450625 12.085 7.21375 12 8 C11.67 6.68 11.34 5.36 11 4 C10.37351562 3.93941406 9.74703125 3.87882813 9.1015625 3.81640625 C8.28429687 3.73261719 7.46703125 3.64882812 6.625 3.5625 C5.40683594 3.44068359 5.40683594 3.44068359 4.1640625 3.31640625 C2 3 2 3 0 2 C0 1.34 0 0.68 0 0 Z " fill="#C9A860" transform="translate(78,5)"/>
<path d="M0 0 C0.99 0.33 1.98 0.66 3 1 C3 1.66 3 2.32 3 3 C-0.11421408 4.8454602 -2.38321316 5.46369062 -6 5 C-7.8125 3.5 -7.8125 3.5 -9 2 C-7.329375 2.061875 -7.329375 2.061875 -5.625 2.125 C-1.95633975 2.41121859 -1.95633975 2.41121859 0 0 Z " fill="#DDA759" transform="translate(56,47)"/>
<path d="M0 0 C0.33 0 0.66 0 1 0 C1.33 1.98 1.66 3.96 2 6 C1.360625 6.28875 0.72125 6.5775 0.0625 6.875 C-2.15206079 7.82823451 -2.15206079 7.82823451 -3 10 C-3.66 10 -4.32 10 -5 10 C-3.85017555 6.10828647 -2.70784225 3.06103907 0 0 Z " fill="#E5A74D" transform="translate(54,63)"/>
<path d="M0 0 C3 1 3 1 4.6875 3.9375 C6 7 6 7 6 9 C6.66 9 7.32 9 8 9 C7.67 9.99 7.34 10.98 7 12 C5.82455195 10.56967163 4.65989738 9.13046758 3.5 7.6875 C2.8503125 6.88699219 2.200625 6.08648437 1.53125 5.26171875 C0 3 0 3 0 0 Z " fill="#D9A24E" transform="translate(39,36)"/>
<path d="M0 0 C0 3.59760476 -0.89512296 4.2215623 -3 7 C-3.144375 7.70125 -3.28875 8.4025 -3.4375 9.125 C-4 11 -4 11 -6.0625 12.25 C-6.701875 12.4975 -7.34125 12.745 -8 13 C-6.63589551 7.40717158 -3.84616474 4.08806189 0 0 Z " fill="#0F0C0E" transform="translate(123,124)"/>
<path d="M0 0 C1.4540625 0.0309375 1.4540625 0.0309375 2.9375 0.0625 C1.9475 0.3925 0.9575 0.7225 -0.0625 1.0625 C-0.0625 4.0325 -0.0625 7.0025 -0.0625 10.0625 C-2.54969271 7.14275204 -3.64822305 4.89456182 -4.0625 1.0625 C-3.0625 0.0625 -3.0625 0.0625 0 0 Z " fill="#DBA54B" transform="translate(76.0625,95.9375)"/>
<path d="M0 0 C1.125 3.75 1.125 3.75 0 6 C-2.64 6 -5.28 6 -8 6 C-4.375 3 -4.375 3 -1 3 C-0.67 2.01 -0.34 1.02 0 0 Z " fill="#F0A835" transform="translate(102,143)"/>
<path d="M0 0 C2.4294516 3.6441774 2.16179575 5.71241272 2 10 C1.34 9.67 0.68 9.34 0 9 C-0.99 9.33 -1.98 9.66 -3 10 C-3 9.34 -3 8.68 -3 8 C-2.34 8 -1.68 8 -1 8 C-1.020625 6.865625 -1.04125 5.73125 -1.0625 4.5625 C-1 1 -1 1 0 0 Z " fill="#BE8842" transform="translate(124,91)"/>
<path d="M0 0 C0.80824219 0.10183594 1.61648437 0.20367187 2.44921875 0.30859375 C3.06410156 0.39238281 3.67898437 0.47617188 4.3125 0.5625 C4.3125 0.8925 4.3125 1.2225 4.3125 1.5625 C3.054375 1.665625 1.79625 1.76875 0.5 1.875 C-2.29249657 2.21108808 -3.43183121 2.36275876 -5.6875 4.125 C-6.0175 4.599375 -6.3475 5.07375 -6.6875 5.5625 C-7.0175 3.9125 -7.3475 2.2625 -7.6875 0.5625 C-4.59271121 -0.46909626 -3.16118607 -0.41232862 0 0 Z " fill="#E9A852" transform="translate(101.6875,100.4375)"/>
<path d="M0 0 C0.33 0.99 0.66 1.98 1 3 C-1.81870287 5.81870287 -4.09056945 5.7303841 -8 6 C-10.4375 5.0625 -10.4375 5.0625 -12 4 C-8.7169902 2.3584951 -5.57454967 3.48111376 -2 4 C-1.34 2.68 -0.68 1.36 0 0 Z " fill="#DEB06D" transform="translate(89,35)"/>
<path d="M0 0 C0.33 0 0.66 0 1 0 C1.06058594 0.73605469 1.12117188 1.47210938 1.18359375 2.23046875 C1.26738281 3.20628906 1.35117187 4.18210937 1.4375 5.1875 C1.51871094 6.15042969 1.59992187 7.11335938 1.68359375 8.10546875 C1.97666151 10.78649602 2.42703754 13.3662986 3 16 C2.67 15.34 2.34 14.68 2 14 C1.34 14 0.68 14 0 14 C-1.39151652 9.20699867 -0.68662689 4.84864218 0 0 Z " fill="#E6A447" transform="translate(46,87)"/>
<path d="M0 0 C0.66 0 1.32 0 2 0 C2 1.65 2 3.3 2 5 C0.35 5.33 -1.3 5.66 -3 6 C-1.125 1.125 -1.125 1.125 0 0 Z " fill="#DFAD60" transform="translate(115,26)"/>
<path d="M0 0 C2.5 2.3125 2.5 2.3125 5 5 C5 5.99 5 6.98 5 8 C2 7 2 7 0 4 C0 2.68 0 1.36 0 0 Z " fill="#D4AA54" transform="translate(47,24)"/>
<path d="M0 0 C1.1446875 0.12375 1.1446875 0.12375 2.3125 0.25 C0.3325 1.24 0.3325 1.24 -1.6875 2.25 C-1.6875 3.24 -1.6875 4.23 -1.6875 5.25 C-2.6775 5.58 -3.6675 5.91 -4.6875 6.25 C-5.3475 6.91 -6.0075 7.57 -6.6875 8.25 C-5.9168107 3.93413993 -4.72992724 0.43999323 0 0 Z " fill="#E8A540" transform="translate(124.6875,18.75)"/>
<path d="M0 0 C4.31392226 0.4793247 6.16569547 1.7457985 9 5 C8.01 5.33 7.02 5.66 6 6 C2.8125 3.625 2.8125 3.625 0 1 C0 0.67 0 0.34 0 0 Z " fill="#DCA64A" transform="translate(95,70)"/>
<path d="M0 0 C-1.49739583 1.23697917 -2.99479167 2.47395833 -4.4921875 3.7109375 C-5.71051161 4.75250992 -6.86660097 5.86660097 -8 7 C-7.75 4.125 -7.75 4.125 -7 1 C-4.1587258 -1.17831022 -3.46754708 -1.15584903 0 0 Z " fill="#D69F4A" transform="translate(74,72)"/>
<path d="M0 0 C1.32 0 2.64 0 4 0 C3.67 1.32 3.34 2.64 3 4 C1.35 4 -0.3 4 -2 4 C-1.34 2.68 -0.68 1.36 0 0 Z " fill="#F7AA20" transform="translate(68,56)"/>
<path d="M0 0 C0 0.66 0 1.32 0 2 C-3.3 2.33 -6.6 2.66 -10 3 C-6.88378718 -0.11621282 -4.21175599 -0.11383124 0 0 Z " fill="#D5A95A" transform="translate(79,49)"/>
<path d="M0 0 C1.32 0 2.64 0 4 0 C3.34 1.98 2.68 3.96 2 6 C1.01 5.34 0.02 4.68 -1 4 C-0.67 2.68 -0.34 1.36 0 0 Z " fill="#F3AA3B" transform="translate(123,20)"/>
<path d="M0 0 C-3.31371 2.20914 -4.3446021 2.22481553 -8.1875 2.125 C-9.08855469 2.10695313 -9.98960938 2.08890625 -10.91796875 2.0703125 C-11.60503906 2.04710938 -12.29210937 2.02390625 -13 2 C-13 1.67 -13 1.34 -13 1 C-11.58622218 0.63447197 -10.16879424 0.28304505 -8.75 -0.0625 C-7.96109375 -0.25972656 -7.1721875 -0.45695312 -6.359375 -0.66015625 C-3.89605178 -1.01497267 -2.34395868 -0.76877544 0 0 Z " fill="#F2A63B" transform="translate(95,119)"/>
<path d="M0 0 C0.66 0.33 1.32 0.66 2 1 C0.54744301 4.82946843 -1.42895561 6.12050295 -5 8 C-3.62845496 5.04590299 -2.01136276 2.55991624 0 0 Z " fill="#161313" transform="translate(132,83)"/>
<path d="M0 0 C0.66 0.33 1.32 0.66 2 1 C1.34 1.66 0.68 2.32 0 3 C-0.46006346 5.20250992 -0.46006346 5.20250992 -0.625 7.625 C-0.69976562 8.44226563 -0.77453125 9.25953125 -0.8515625 10.1015625 C-0.90054688 10.72804688 -0.94953125 11.35453125 -1 12 C-1.33 12 -1.66 12 -2 12 C-2.33 8.7 -2.66 5.4 -3 2 C-2.01 1.34 -1.02 0.68 0 0 Z " fill="#D12932" transform="translate(171,73)"/>
<path d="M0 0 C1.2065625 0.0309375 1.2065625 0.0309375 2.4375 0.0625 C0.07457344 2.58838702 -1.22712511 3.95070837 -4.5625 5.0625 C-3.43829114 0.08386076 -3.43829114 0.08386076 0 0 Z " fill="#E2A640" transform="translate(133.5625,59.9375)"/>
</svg>
